<svg id="Capa_1" enable-background="new 0 0 512 512" height="512" viewBox="0 0 512 512" width="512" xmlns="http://www.w3.org/2000/svg"><g><path d="m332 0c-99.412 0-180 80.588-180 180 0 82.793 55.972 152.347 132.085 173.35 1.736-7.533 2.915-15.292 2.915-23.35 0-8.364-1.159-16.439-3.025-24.234-50.718-19.44-86.975-68.289-86.975-125.766 0-74.443 60.557-135 135-135s135 60.557 135 135c0 53.745-31.791 99.873-77.358 121.58 1.274 9.335 2.358 18.739 2.358 28.42 0 6.865-1.025 13.455-1.672 20.151 70.745-24.256 121.672-91.183 121.672-170.151 0-99.412-80.588-180-180-180z"/><path d="m227.988 158.669c-1.805 7.509-2.988 15.258-2.988 23.331 0 8.362 1.207 16.441 3.129 24.265 50.666 19.466 86.871 68.297 86.871 125.735 0 74.443-60.557 135-135 135s-135-60.557-135-135c0-53.633 31.668-99.666 77.082-121.43-1.302-9.382-2.082-18.904-2.082-28.57 0-6.821.829-13.422 1.47-20.076-70.636 24.313-121.47 91.183-121.47 170.076 0 99.412 80.588 180 180 180s180-80.588 180-180c0-82.767-55.933-152.305-132.012-173.331z"/></g></svg>